<?xml version="1.0" standalone="no"?>
<!DOCTYPE svg PUBLIC "-//W3C//DTD SVG 20010904//EN"
 "http://www.w3.org/TR/2001/REC-SVG-20010904/DTD/svg10.dtd">
<svg version="1.0" xmlns="http://www.w3.org/2000/svg"
 width="2000.000000pt" height="2000.000000pt" viewBox="0 0 2000.000000 2000.000000"
 preserveAspectRatio="xMidYMid meet">
<metadata>
Created by potrace 1.11, written by Peter Selinger 2001-2013
</metadata>
<g transform="translate(0.000000,2000.000000) scale(0.100000,-0.100000)"
fill="#000000" stroke="none">
<path d="M9628 19715 c-1 -1 -68 -6 -148 -9 -80 -4 -165 -9 -190 -11 -130 -11
-198 -17 -225 -20 -16 -1 -64 -6 -105 -9 -41 -4 -86 -9 -100 -11 -14 -2 -47
-7 -75 -10 -27 -2 -59 -6 -70 -9 -11 -2 -47 -7 -80 -11 -32 -4 -67 -8 -76 -10
-9 -2 -34 -6 -55 -9 -150 -24 -291 -47 -329 -56 -25 -6 -62 -13 -83 -16 -20
-3 -98 -19 -172 -36 -74 -16 -146 -32 -160 -34 -14 -3 -32 -7 -40 -10 -8 -3
-26 -8 -40 -11 -38 -7 -54 -11 -60 -13 -3 -1 -9 -3 -15 -5 -5 -1 -13 -3 -17
-5 -9 -3 -12 -4 -58 -14 -19 -4 -91 -24 -160 -43 -69 -19 -129 -36 -135 -37
-53 -12 -529 -168 -655 -216 -81 -30 -112 -42 -120 -45 -3 -1 -18 -7 -35 -14
-16 -7 -75 -30 -130 -53 -55 -22 -120 -49 -145 -59 -25 -11 -54 -24 -65 -29
-123 -51 -350 -155 -375 -171 -8 -5 -26 -14 -40 -20 -35 -15 -119 -57 -157
-80 -18 -10 -33 -16 -33 -13 0 4 -6 2 -12 -4 -7 -5 -47 -28 -88 -50 -41 -22
-96 -51 -121 -65 -25 -14 -66 -37 -90 -49 -24 -13 -55 -31 -69 -39 -14 -9 -99
-60 -190 -114 -91 -54 -166 -102 -168 -107 -2 -4 -8 -8 -14 -8 -32 0 -783
-530 -796 -562 -2 -4 -10 -8 -17 -8 -7 0 -15 -3 -17 -7 -2 -7 -74 -67 -126
-108 -17 -13 -30 -24 -73 -60 -19 -16 -57 -48 -83 -70 -27 -22 -63 -53 -80
-70 -18 -16 -50 -45 -71 -63 -182 -153 -608 -577 -795 -791 -30 -35 -66 -75
-80 -90 -14 -15 -45 -51 -70 -81 -25 -29 -55 -65 -67 -79 -13 -14 -26 -30 -31
-36 -4 -5 -23 -30 -42 -54 -19 -24 -44 -54 -55 -67 -11 -12 -24 -28 -30 -36
-5 -7 -23 -31 -39 -53 -17 -22 -38 -49 -48 -60 -10 -11 -43 -54 -73 -95 -30
-41 -60 -82 -67 -90 -7 -8 -12 -16 -10 -18 2 -2 -7 -12 -19 -23 -12 -10 -18
-19 -13 -19 5 0 4 -4 -1 -8 -6 -4 -28 -32 -50 -62 -22 -30 -44 -58 -50 -62 -5
-4 -6 -8 -2 -8 5 0 -4 -17 -20 -37 -16 -21 -42 -58 -58 -83 -17 -25 -33 -49
-38 -55 -12 -16 -174 -271 -201 -317 -14 -24 -35 -59 -46 -78 -11 -19 -34 -57
-51 -85 -16 -27 -35 -61 -42 -75 -6 -14 -14 -27 -17 -30 -3 -3 -14 -21 -23
-40 -10 -19 -33 -62 -52 -95 -41 -72 -268 -528 -318 -640 -20 -44 -47 -105
-60 -135 -14 -30 -48 -113 -77 -185 -29 -71 -58 -143 -65 -160 -7 -16 -27 -70
-45 -120 -17 -49 -38 -103 -45 -120 -11 -26 -27 -70 -30 -85 -1 -3 -32 -99
-69 -215 -68 -211 -95 -297 -102 -325 -2 -8 -26 -103 -55 -210 -28 -107 -52
-202 -54 -210 -11 -51 -57 -268 -61 -285 -2 -11 -6 -31 -9 -45 -5 -26 -22
-111 -29 -145 -2 -11 -7 -40 -11 -65 -4 -25 -8 -52 -10 -60 -1 -8 -6 -37 -10
-65 -5 -27 -9 -52 -10 -55 0 -3 -5 -32 -9 -65 -4 -32 -10 -68 -12 -79 -2 -11
-6 -40 -9 -65 -3 -25 -7 -62 -10 -81 -18 -135 -24 -197 -40 -385 -3 -38 -8
-92 -10 -120 -27 -318 -27 -1106 0 -1390 2 -22 7 -78 10 -125 11 -130 21 -231
30 -300 2 -14 6 -47 9 -75 13 -104 16 -131 21 -155 2 -14 7 -45 10 -70 6 -44
42 -265 50 -305 2 -11 9 -45 15 -75 6 -30 13 -66 15 -80 3 -14 7 -36 10 -50 3
-14 8 -38 11 -55 3 -16 7 -34 8 -40 2 -5 7 -28 11 -50 5 -22 10 -42 10 -45 1
-3 5 -16 8 -30 4 -14 9 -36 11 -50 8 -39 15 -70 21 -90 3 -10 7 -27 9 -37 2
-10 11 -45 20 -78 9 -33 18 -67 20 -75 2 -8 10 -35 17 -60 17 -60 17 -62 22
-85 3 -11 13 -45 22 -75 9 -30 30 -98 46 -150 43 -137 99 -312 109 -335 5 -11
27 -72 50 -135 22 -63 45 -125 50 -137 14 -32 26 -62 41 -103 41 -113 187
-444 290 -657 32 -68 60 -126 60 -130 1 -5 11 -24 23 -43 12 -19 28 -48 36
-65 8 -16 23 -42 33 -57 10 -16 16 -28 13 -28 -4 0 4 -17 17 -37 13 -21 27
-48 31 -60 4 -13 12 -23 17 -23 5 0 9 -9 9 -20 0 -11 5 -20 10 -20 6 0 10 -4
10 -10 0 -5 18 -39 40 -75 22 -36 40 -67 40 -69 0 -4 67 -117 110 -186 94
-153 115 -186 122 -188 4 -2 8 -8 8 -13 0 -11 140 -221 155 -231 5 -4 6 -8 2
-8 -4 0 4 -12 18 -27 14 -15 25 -31 25 -35 0 -4 7 -16 14 -25 8 -10 44 -58 80
-108 36 -49 69 -94 73 -100 5 -5 20 -26 33 -45 13 -19 29 -40 35 -46 5 -6 21
-26 35 -44 52 -70 154 -195 164 -202 6 -4 7 -8 2 -8 -5 0 0 -8 10 -17 10 -10
41 -45 69 -78 27 -33 54 -65 60 -71 5 -6 30 -35 55 -64 46 -54 125 -142 191
-212 20 -21 35 -38 34 -38 -2 0 66 -71 151 -157 85 -86 154 -160 154 -165 0
-4 4 -8 9 -8 6 0 36 -26 69 -57 70 -69 229 -216 291 -270 25 -21 55 -47 67
-58 12 -11 41 -36 64 -55 23 -19 55 -46 70 -60 16 -14 43 -36 61 -50 18 -14
38 -31 45 -38 7 -6 15 -12 19 -12 3 0 19 -14 35 -30 16 -17 32 -30 35 -30 4 0
12 -6 20 -13 7 -6 28 -23 46 -37 18 -14 38 -31 45 -37 7 -7 17 -13 23 -13 6 0
11 -4 11 -8 0 -4 12 -15 28 -24 15 -9 38 -26 52 -38 14 -12 36 -30 50 -39 27
-17 105 -74 132 -96 9 -7 58 -42 110 -76 51 -35 97 -67 103 -71 21 -17 285
-188 291 -188 3 0 25 -14 49 -30 24 -17 48 -30 54 -30 6 0 11 -4 11 -10 0 -5
5 -10 11 -10 6 0 23 -8 37 -19 15 -10 47 -29 72 -43 25 -14 74 -42 108 -62 35
-20 68 -36 73 -36 5 0 9 -3 9 -7 0 -5 10 -13 23 -18 12 -6 85 -44 162 -85 241
-127 467 -235 655 -315 36 -15 90 -39 120 -52 30 -14 60 -26 65 -27 6 -1 26
-9 45 -18 19 -9 94 -38 165 -66 72 -27 139 -53 150 -57 11 -5 25 -9 30 -11 24
-7 442 -148 460 -155 11 -4 29 -9 40 -12 11 -3 83 -23 160 -46 77 -23 149 -43
160 -45 11 -2 40 -10 65 -17 25 -7 52 -14 60 -15 8 -2 62 -15 120 -29 110 -28
121 -31 185 -44 22 -5 76 -16 120 -26 105 -22 111 -23 175 -35 30 -5 64 -11
75 -13 16 -4 165 -28 315 -52 22 -3 149 -21 220 -30 49 -7 116 -14 185 -20 39
-3 84 -8 102 -10 54 -8 153 -15 403 -32 241 -15 1127 -7 1242 12 13 2 61 7
108 10 47 4 99 8 115 10 17 1 62 6 100 9 39 4 86 8 105 11 19 2 55 7 80 10 65
8 191 26 220 31 14 2 45 7 70 10 25 3 54 8 65 10 11 2 36 7 55 10 19 3 94 16
165 29 72 13 141 26 155 29 21 4 242 52 275 60 6 1 37 9 70 16 67 15 72 17 83
20 4 1 12 3 17 5 6 1 12 3 15 4 3 2 12 4 20 6 8 1 53 13 100 25 47 12 92 23
100 25 8 2 27 8 43 14 15 6 38 13 51 15 29 5 133 35 161 47 11 4 94 31 185 59
91 28 179 58 197 66 17 8 34 14 37 14 6 0 170 59 216 77 8 4 17 7 20 8 3 1 22
9 44 18 21 9 44 17 50 17 7 0 16 4 22 8 5 4 36 19 69 31 33 13 83 34 110 46
28 12 95 42 150 65 96 41 514 240 545 259 8 6 49 27 90 48 41 20 77 40 80 43
3 3 23 15 45 26 117 63 162 88 178 102 9 8 17 12 17 8 0 -4 15 4 33 18 19 15
36 26 40 26 14 0 380 229 385 243 2 4 8 7 13 7 10 0 103 62 107 73 2 4 8 7 12
7 5 0 39 21 75 48 37 26 74 52 83 57 9 6 29 19 43 30 14 11 36 27 49 35 12 8
30 22 40 30 10 8 28 22 40 30 13 8 35 25 50 37 15 13 33 23 39 23 6 0 11 4 11
8 0 5 21 24 48 42 26 19 53 40 60 47 8 7 30 26 50 41 21 15 39 29 42 32 3 3
28 23 55 45 68 54 95 77 114 95 9 8 30 26 46 38 17 13 59 49 94 80 35 32 73
65 85 75 207 181 636 610 786 787 12 14 38 43 58 66 33 36 90 102 147 172 11
13 27 32 35 41 8 9 33 39 55 66 22 28 44 55 50 62 5 7 16 19 23 27 6 8 12 20
12 26 0 6 5 8 10 5 6 -3 10 -2 10 3 0 7 78 116 113 157 4 6 33 44 63 85 30 41
60 82 67 90 7 8 41 58 76 110 36 52 69 97 73 98 4 2 8 7 8 12 0 4 24 43 53 86
103 154 301 477 352 577 11 20 22 37 26 37 3 0 6 6 6 13 0 6 12 31 26 54 15
24 27 45 27 49 0 3 9 19 21 35 11 16 17 29 12 29 -4 0 -3 4 3 8 10 6 254 492
254 505 0 2 17 40 37 83 20 43 38 81 38 84 1 3 9 23 19 45 9 22 38 90 62 150
25 61 49 119 54 130 4 11 18 47 30 80 13 33 26 69 30 80 5 11 13 36 20 55 7
19 18 49 25 65 12 28 28 73 30 85 0 3 25 77 53 165 57 170 80 246 106 335 19
69 77 280 81 300 2 8 16 65 30 125 15 61 29 121 31 134 3 12 11 51 19 85 8 33
16 74 19 90 3 16 10 52 15 80 12 60 15 75 41 221 11 61 22 128 25 150 3 22 10
65 15 95 5 30 11 80 15 111 3 31 7 65 9 76 3 11 7 46 10 79 3 32 8 77 11 99 8
63 15 135 20 200 3 33 7 89 10 125 28 352 28 1094 0 1395 -2 22 -6 74 -10 115
-11 139 -23 261 -30 310 -3 14 -7 48 -10 75 -7 71 -14 126 -20 155 -2 14 -7
45 -10 70 -4 25 -8 59 -11 75 -3 17 -7 41 -9 55 -7 52 -46 266 -51 283 -3 11
-7 29 -9 40 -5 30 -13 71 -30 152 -15 69 -18 81 -36 160 -5 22 -12 51 -15 65
-59 275 -287 1007 -374 1205 -24 54 -74 191 -72 198 1 4 -2 7 -8 7 -5 0 -10 7
-10 15 0 8 -4 23 -10 33 -5 9 -23 51 -40 92 -32 77 -53 124 -98 220 -14 30
-27 57 -27 60 -1 3 -20 44 -43 93 -23 48 -42 90 -43 95 0 4 -4 12 -9 17 -4 6
-42 75 -83 155 -41 80 -83 161 -94 180 -11 19 -35 62 -53 95 -18 33 -44 77
-57 97 -12 21 -23 40 -23 42 0 3 -22 41 -50 86 -27 45 -50 83 -50 85 0 4 -114
184 -127 200 -4 6 -14 22 -22 37 -8 15 -22 37 -33 47 -10 11 -18 23 -18 26 0
3 -19 33 -42 67 -24 33 -48 68 -53 77 -23 37 -50 77 -60 87 -5 6 -28 37 -50
69 -34 48 -66 92 -102 140 -121 159 -327 421 -343 435 -3 3 -30 34 -60 70 -30
36 -57 67 -60 70 -3 3 -41 46 -85 95 -44 50 -94 105 -112 123 -17 17 -30 32
-28 32 2 0 -66 70 -151 157 -85 86 -154 160 -154 165 0 4 -4 8 -10 8 -5 0 -36
26 -68 58 -52 50 -207 194 -260 240 -10 9 -45 40 -76 67 -32 28 -70 61 -86 75
-15 14 -47 41 -71 60 -24 19 -64 52 -89 73 -53 44 -105 86 -171 137 -18 14
-37 30 -43 35 -6 6 -81 61 -166 123 -85 62 -162 118 -171 125 -8 7 -23 17 -31
22 -29 18 -263 174 -273 182 -21 17 -155 103 -159 103 -3 0 -32 18 -65 40 -33
22 -63 40 -66 40 -3 0 -42 23 -86 50 -44 28 -82 50 -85 50 -2 0 -38 20 -80 45
-41 25 -78 45 -81 45 -3 0 -28 13 -54 30 -27 16 -49 26 -49 22 0 -4 -4 -2 -8
3 -4 6 -32 23 -62 39 -110 57 -275 140 -280 141 -3 1 -41 18 -85 39 -90 43
-156 73 -230 106 -27 12 -63 29 -80 37 -16 8 -37 16 -45 18 -8 2 -37 14 -65
26 -27 13 -54 24 -60 25 -5 1 -30 11 -55 22 -25 11 -72 30 -105 42 -33 12 -73
28 -90 35 -16 7 -52 20 -80 30 -27 9 -59 21 -70 25 -26 11 -137 50 -150 54 -8
2 -225 71 -397 126 -16 5 -28 7 -28 4 0 -2 -13 2 -30 11 -16 9 -30 13 -30 11
0 -3 -19 2 -42 10 -23 8 -53 16 -67 19 -14 3 -51 12 -81 21 -30 8 -64 17 -75
19 -11 2 -76 18 -145 35 -109 27 -419 94 -490 105 -14 3 -77 13 -140 24 -63
11 -133 22 -155 25 -23 4 -50 8 -60 10 -11 2 -45 7 -75 11 -30 3 -66 8 -80 10
-41 6 -102 14 -155 20 -27 3 -71 7 -97 10 -86 10 -233 22 -494 41 -83 7 -910
15 -916 9z m917 -739 c44 -3 109 -8 145 -11 36 -3 90 -8 120 -10 102 -7 465
-50 550 -65 30 -5 73 -12 95 -15 39 -6 65 -10 115 -20 14 -3 43 -8 65 -11 22
-3 72 -13 110 -21 39 -8 81 -17 95 -19 14 -3 53 -11 86 -19 34 -8 73 -16 85
-19 13 -2 83 -18 154 -36 72 -17 141 -34 154 -36 14 -3 28 -7 33 -10 4 -3 17
-7 28 -10 36 -8 54 -12 145 -40 50 -14 95 -27 100 -28 16 -3 178 -56 200 -65
11 -5 52 -18 90 -30 103 -33 399 -143 410 -152 5 -5 14 -9 21 -9 7 0 34 -10
61 -22 26 -11 53 -22 58 -23 11 -3 222 -95 330 -145 144 -66 503 -248 515
-261 3 -3 21 -12 40 -21 19 -9 73 -39 120 -67 47 -28 97 -56 113 -62 15 -6 27
-15 27 -21 0 -5 4 -7 8 -4 5 3 18 -2 28 -12 10 -9 33 -24 49 -32 17 -8 39 -23
49 -32 11 -10 23 -18 27 -18 7 0 228 -139 239 -150 3 -3 32 -23 65 -45 33 -22
107 -73 165 -115 58 -41 116 -82 130 -92 14 -9 34 -24 45 -35 11 -10 36 -29
55 -43 19 -13 51 -37 70 -52 19 -16 40 -32 45 -36 22 -16 171 -137 183 -149 8
-8 30 -26 50 -41 20 -15 43 -34 52 -42 19 -18 98 -89 195 -173 39 -34 187
-180 330 -323 230 -231 303 -308 385 -404 11 -14 31 -36 43 -50 12 -14 45 -52
72 -85 28 -33 61 -71 73 -85 13 -14 35 -42 49 -62 14 -21 29 -38 32 -38 4 0
15 -13 24 -30 10 -16 23 -35 30 -42 7 -7 38 -47 69 -88 32 -41 61 -79 66 -85
4 -5 43 -59 87 -120 43 -60 83 -113 89 -117 6 -4 7 -8 3 -8 -4 0 1 -10 13 -22
11 -12 20 -27 20 -34 0 -7 3 -14 8 -16 11 -4 92 -126 92 -138 0 -5 3 -10 8
-10 4 0 18 -20 32 -45 14 -25 28 -45 32 -45 5 0 8 -4 8 -9 0 -7 105 -184 161
-271 5 -8 17 -31 27 -50 9 -19 20 -36 25 -38 4 -2 7 -8 7 -12 0 -5 15 -35 34
-67 52 -91 128 -235 124 -238 -2 -1 -34 -24 -73 -51 -117 -81 -873 -608 -984
-686 -58 -40 -137 -95 -175 -122 -110 -76 -837 -583 -1071 -746 -115 -80 -241
-168 -280 -195 -83 -58 -901 -628 -995 -694 -36 -24 -171 -119 -300 -209 -129
-90 -240 -166 -246 -169 -7 -2 -77 14 -155 36 -79 23 -317 88 -529 146 -212
59 -448 124 -525 145 -77 21 -216 60 -310 85 -93 26 -199 55 -235 66 -59 16
-208 58 -637 175 -79 21 -143 42 -143 45 0 4 30 22 68 42 37 19 137 71 222
116 85 45 197 102 249 128 91 47 92 48 60 55 -18 3 -67 9 -108 13 -42 3 -103
10 -136 15 -33 5 -96 12 -140 16 -44 4 -83 9 -87 10 -5 1 -13 2 -19 3 -7 0 64
57 157 126 478 354 545 405 533 405 -21 0 -878 -215 -1124 -282 -284 -77 -723
-201 -845 -238 -52 -16 -135 -41 -185 -55 -715 -213 -1636 -564 -2310 -880
-55 -26 -149 -70 -210 -98 -247 -116 -716 -359 -967 -501 -37 -20 -47 -42 -29
-62 4 -5 48 -85 96 -178 56 -108 84 -171 76 -174 -50 -17 -484 -326 -631 -450
-187 -157 -461 -428 -633 -626 -29 -33 -57 -64 -62 -70 -6 -6 -33 -38 -60 -71
-28 -33 -53 -62 -56 -65 -9 -8 -651 -1612 -646 -1616 2 -2 64 24 138 59 74 35
175 83 224 107 50 23 140 66 200 95 61 28 217 103 348 165 l238 112 137 -17
c75 -9 151 -18 167 -20 17 -2 53 -7 80 -10 28 -4 64 -8 80 -10 17 -2 50 -6 75
-9 25 -3 68 -8 95 -11 28 -3 64 -8 80 -10 17 -3 109 -14 205 -25 237 -28 231
-27 262 -61 15 -17 74 -81 130 -141 57 -61 116 -125 132 -142 15 -17 54 -58
85 -91 159 -171 256 -278 259 -285 3 -7 -165 -876 -188 -975 -5 -22 -12 -56
-15 -75 -9 -54 -165 -849 -180 -922 -2 -9 30 -90 71 -180 71 -155 88 -190 133
-290 11 -24 56 -122 101 -218 l81 -175 -68 -65 c-38 -36 -111 -104 -163 -151
-52 -47 -324 -294 -605 -549 -280 -255 -553 -502 -605 -550 -52 -48 -225 -205
-385 -350 -159 -144 -316 -288 -349 -318 l-58 -56 -42 23 c-22 13 -79 49 -126
80 -47 31 -93 61 -102 66 -35 20 -350 242 -409 289 -15 12 -39 30 -54 41 -85
60 -325 258 -325 268 0 6 -3 8 -6 4 -5 -5 -21 7 -94 73 -16 14 -49 43 -75 65
-26 22 -70 61 -97 87 -28 27 -52 48 -55 48 -9 0 -493 488 -563 568 -36 41 -76
86 -90 101 -80 89 -259 304 -322 386 -12 17 -26 31 -30 33 -5 2 -8 8 -8 14 0
5 -6 15 -12 22 -20 19 -166 214 -208 276 -8 12 -21 28 -27 36 -7 7 -13 16 -13
19 0 4 -14 24 -30 45 -17 21 -30 41 -30 44 0 7 -10 20 -37 51 -7 7 -13 16 -13
19 0 3 -20 35 -45 70 -25 36 -45 70 -45 75 0 6 -4 11 -10 11 -5 0 -10 5 -10
11 0 6 -13 29 -29 52 -26 39 -211 346 -211 351 0 1 -27 52 -61 112 -65 117
-235 454 -286 569 -17 39 -46 102 -63 140 -18 39 -33 75 -34 80 -1 6 -4 15 -8
20 -9 15 -92 221 -122 305 -15 41 -31 84 -36 95 -11 28 -23 58 -26 70 -1 6 -9
27 -18 47 -9 21 -13 38 -10 38 4 0 2 6 -4 13 -8 9 -79 221 -88 262 -1 6 -14
48 -29 95 -34 109 -54 179 -61 210 -2 14 -8 34 -11 45 -8 24 -6 16 -38 145
-15 58 -29 116 -31 130 -3 14 -10 43 -16 65 -5 22 -12 49 -14 60 -2 11 -8 43
-14 70 -16 76 -20 97 -25 130 -3 17 -10 50 -15 75 -14 65 -43 241 -54 330 -3
25 -8 54 -10 65 -6 32 -19 133 -31 245 -3 30 -8 69 -10 85 -2 17 -6 69 -10
115 -4 47 -8 101 -10 120 -27 290 -27 1092 0 1380 2 19 6 71 10 115 6 83 8
100 19 200 4 33 9 80 12 105 3 25 6 56 9 70 2 14 6 45 10 70 4 25 8 56 10 70
10 63 48 297 51 315 8 34 24 119 29 147 10 57 56 265 65 293 5 17 11 44 14 60
3 17 15 66 27 110 11 44 22 87 24 95 2 8 8 27 14 43 6 15 9 27 6 27 -2 0 5 25
15 55 10 30 17 55 14 55 -3 0 -2 6 3 13 4 6 8 15 9 20 1 4 3 9 4 12 1 3 3 8 4
13 34 129 209 634 263 758 9 21 17 41 18 44 1 3 8 19 15 35 7 17 15 39 17 49
2 11 10 27 18 36 8 9 15 21 15 27 0 12 53 135 77 178 10 17 17 32 16 35 -1 3
20 48 45 100 25 52 46 97 47 100 1 3 21 43 45 90 24 47 43 88 42 93 -1 4 2 7
8 7 5 0 10 9 10 20 0 11 4 20 9 20 5 0 14 12 20 28 13 34 96 188 150 276 23
38 41 70 41 73 0 2 15 28 33 57 17 28 37 61 44 72 45 74 142 227 170 266 18
26 33 52 33 58 0 5 4 10 8 10 4 0 16 15 27 32 21 36 183 266 200 284 5 6 17
22 25 34 18 26 118 158 163 214 57 71 172 211 185 226 7 8 22 27 35 41 12 14
39 45 60 70 109 124 202 225 367 394 32 33 127 125 210 205 84 80 163 155 176
168 13 12 25 22 28 22 3 0 20 15 39 33 18 17 59 55 92 82 32 28 66 58 76 68
11 9 23 17 29 17 6 0 10 3 10 8 0 4 35 34 77 67 42 33 87 70 100 83 13 12 28
22 33 22 4 0 10 3 12 8 2 4 39 34 83 67 44 33 89 67 99 77 11 10 23 18 27 18
5 0 17 10 29 22 11 12 20 18 20 12 0 -5 4 -4 8 1 14 21 296 215 311 215 6 0
11 5 11 10 0 6 7 13 16 17 9 3 83 48 163 99 80 52 152 94 159 94 6 0 12 5 12
10 0 6 7 10 15 10 8 0 15 5 15 10 0 6 5 10 11 10 6 0 36 15 67 34 94 56 147
84 153 82 4 0 15 6 25 14 11 8 30 21 44 29 56 32 442 222 540 266 58 26 119
53 135 60 89 40 315 131 440 177 61 22 117 42 125 46 8 3 51 18 95 34 76 27
92 32 133 43 9 2 37 11 61 20 54 20 325 100 371 110 8 2 42 11 75 20 33 9 67
18 75 20 8 2 51 12 95 23 44 11 94 23 110 26 17 3 40 7 53 10 42 11 57 14 162
36 131 27 126 26 180 35 25 4 54 9 65 11 56 11 135 24 175 29 25 3 52 8 60 10
8 2 38 6 65 10 69 8 135 16 165 21 14 2 55 6 90 9 36 3 76 7 90 10 14 2 63 7
110 10 47 4 101 8 120 10 19 2 98 7 175 10 77 4 142 9 144 11 6 5 825 -3 916
-10z m7714 -5378 c33 -72 95 -221 136 -324 l27 -71 -53 -49 c-29 -27 -66 -61
-82 -76 -16 -15 -63 -58 -105 -95 -75 -67 -87 -79 -167 -151 -22 -21 -87 -80
-145 -132 -58 -52 -110 -99 -116 -105 -6 -5 -53 -48 -105 -95 -51 -47 -120
-110 -154 -140 -33 -31 -78 -71 -99 -90 -22 -19 -64 -58 -95 -86 -97 -88 -109
-99 -183 -166 -40 -36 -87 -79 -103 -94 -35 -32 -196 -179 -229 -207 -19 -17
-163 -148 -225 -206 -14 -13 -57 -51 -95 -85 -37 -33 -83 -74 -101 -91 -17
-16 -74 -68 -126 -115 -52 -47 -119 -107 -149 -135 -30 -27 -75 -68 -100 -91
-25 -22 -73 -66 -107 -97 l-63 -57 737 -2 736 -3 -544 -397 c-299 -218 -659
-480 -799 -582 -140 -103 -334 -244 -430 -313 -96 -70 -179 -131 -185 -135
-31 -25 -1007 -737 -1045 -763 -29 -20 -259 -188 -472 -344 -64 -47 -126 -93
-138 -101 -12 -8 -65 -47 -118 -86 -54 -39 -277 -202 -497 -362 -220 -160
-404 -295 -410 -299 -5 -5 -66 -49 -135 -99 -69 -50 -242 -176 -385 -281 -143
-104 -336 -245 -430 -313 -93 -68 -221 -161 -283 -207 -62 -46 -121 -87 -130
-91 -9 -4 225 -9 522 -12 l539 -5 -294 -204 c-338 -235 -404 -281 -514 -358
-44 -31 -206 -144 -360 -251 -154 -107 -403 -281 -553 -386 -151 -105 -281
-195 -290 -201 -9 -5 -21 -14 -26 -18 -13 -10 -146 -103 -276 -192 -52 -36
-142 -99 -200 -140 -58 -40 -148 -103 -200 -139 -105 -72 -378 -262 -425 -296
-16 -12 -133 -93 -260 -181 -126 -88 -252 -176 -280 -195 -79 -56 -573 -400
-645 -450 -36 -24 -76 -52 -90 -61 -35 -25 -601 -420 -624 -435 -10 -7 -35
-24 -55 -39 -49 -35 -109 -76 -546 -379 -209 -145 -382 -267 -385 -270 -3 -3
-45 -32 -93 -65 -114 -77 -117 -79 -214 -147 -45 -32 -87 -58 -93 -58 -14 0
-189 90 -196 101 -2 4 2 11 10 16 8 4 41 33 73 63 33 30 97 89 143 130 117
105 130 117 175 158 22 21 105 96 185 167 79 72 152 137 160 145 26 24 173
156 196 177 12 10 63 56 114 103 111 102 95 87 205 185 49 44 96 87 105 95 20
19 174 158 255 230 33 30 78 70 100 90 64 59 163 148 265 240 52 47 101 92
110 100 9 8 56 51 105 95 50 44 99 89 111 100 21 20 157 142 198 178 11 10 59
53 105 95 126 115 124 112 198 179 38 34 83 74 100 90 46 43 193 175 242 219
24 22 54 48 65 59 12 11 64 58 116 105 52 47 100 90 106 95 6 6 46 42 90 81
43 40 91 83 105 95 34 32 187 170 209 189 9 8 56 50 103 94 48 43 95 86 105
95 11 9 61 54 112 101 l93 85 -743 5 -743 5 782 570 c430 314 792 577 805 585
23 15 1007 732 1329 968 100 73 193 141 208 150 14 9 164 119 335 243 170 124
372 271 449 327 77 56 308 225 513 374 206 150 392 286 415 302 23 16 147 106
277 200 129 95 361 264 515 376 154 112 302 219 328 239 l48 36 -526 5 -526 5
68 48 c37 27 188 132 335 235 147 103 406 284 575 402 169 118 343 240 387
271 45 30 158 109 251 175 94 65 181 127 195 136 25 16 368 257 425 298 17 11
93 65 170 119 77 53 334 233 570 398 237 165 464 324 505 352 41 29 107 75
145 102 87 61 129 90 230 160 44 31 153 107 242 170 180 127 484 339 547 382
40 27 60 41 101 72 11 8 21 15 23 15 1 0 15 -28 31 -62z m-1749 -6608 c0 -55
-5 -111 -12 -125 -24 -53 -40 -55 -391 -55 -238 0 -326 -3 -335 -12 -17 -17
-17 -2019 0 -2036 9 -9 97 -12 335 -12 228 0 330 -3 348 -12 43 -19 55 -56 55
-168 l0 -100 -1590 0 -1590 0 0 108 c1 114 8 134 57 161 15 7 121 11 345 11
239 0 327 3 336 12 17 17 17 2019 0 2036 -9 9 -97 12 -335 12 -351 0 -367 2
-391 55 -7 14 -12 70 -12 125 l0 100 1590 0 1590 0 0 -100z"/>
<path d="M9973 17622 c-39 -119 -100 -308 -329 -1022 -53 -162 -100 -308 -106
-323 l-11 -28 -783 3 c-431 2 -784 0 -784 -3 0 -3 37 -32 83 -64 45 -32 84
-61 87 -64 3 -3 28 -22 55 -41 28 -19 55 -38 60 -42 6 -5 46 -35 90 -66 568
-410 881 -636 888 -642 4 -4 4 -18 -2 -31 -5 -13 -32 -94 -60 -179 -44 -138
-215 -663 -367 -1129 -30 -90 -54 -165 -54 -167 0 -2 26 16 58 39 31 24 94 70
138 103 114 83 280 204 479 350 94 69 181 132 195 142 14 9 110 79 213 154
103 76 190 138 193 138 3 0 92 -63 197 -140 504 -368 738 -539 796 -580 34
-25 110 -80 168 -123 57 -43 107 -77 109 -74 2 2 -18 71 -45 153 -43 131 -203
622 -376 1149 -54 167 -63 205 -47 205 5 0 50 30 100 68 50 37 110 81 133 97
24 17 152 109 285 205 133 96 355 257 494 358 139 100 249 182 244 183 -5 0
-361 0 -790 -1 l-781 -1 -16 48 c-16 52 -167 519 -249 773 -100 309 -138 427
-172 534 -20 60 -36 115 -36 122 0 7 -3 15 -8 17 -4 3 -26 -52 -49 -121z"/>
<path d="M14552 6798 c-17 -17 -17 -2019 0 -2036 17 -17 719 -17 736 0 17 17
17 2019 0 2036 -9 9 -104 12 -368 12 -264 0 -359 -3 -368 -12z"/>
</g>
</svg>
